PathFileType	4	(X/Y/Z)	C:/Users/beibeiliu/ov580/test_trc\sequence.38_training_dense_left.trc
DataRate	CameraRate	NumFrames	NumMarkers	Units	OrigDataRate	OrigDataStartFrame	OrigNumFrames
120	120	8	19	mm	120	26	75
Frame#	Time	ThumbCMC			ThumbMCP			ThumbIP			ThumbTip			IndexMCP			IndexPIP			IndexTip			MiddleMCP			MiddlePIP			MiddleTip			RingMCP			RingPIP			RingTip			PinkyMCP			PinkyPIP			PinkyTip			BackHand1			BackHand2			BackHand3	
		X0	Y0	Z0	X1	Y1	Z1	X2	Y2	Z2	X3	Y3	Z3	X4	Y4	Z4	X5	Y5	Z5	X6	Y6	Z6	X7	Y7	Z7	X8	Y8	Z8	X9	Y9	Z9	X10	Y10	Z10	X11	Y11	Z11	X12	Y12	Z12	X13	Y13	Z13	X14	Y14	Z14	X15	Y15	Z15	X16	Y16	Z16	X17	Y17	Z17	X18	Y18	Z18	
25	0.208333	-192.141	101.677	118.219	-199.379	126.808	99.2347	-195.002	143.766	80.6328	-190.107	159.885	68.7223	-153.854	117.154	61.0744	-154.111	143.901	52.664	-163.072	166.954	63.701	-132.252	112.422	66.1128	-131.444	140.954	55.6388	-149.772	153.909	79.679	-118.13	113.056	83.7165	-119.129	140.509	72.4902	-138.518	152.564	90.5421	-113.676	116.181	101.826	-110.497	137.437	90.8554	-131.81	149.345	97.2574	-139.271	90.0467	121.852	-151.772	79.6226	136.504	-165.449	81.5818	115.662	
26	0.216667	-197.77	101.116	115.671	-201.177	125.931	98.2368	-194.686	140.62	82.6506	-188.062	156.555	70.9958	-163.43	112.979	62.6522	-155.765	138.884	52.9701	-164.165	162.338	61.4085	-134.105	111.53	68.4978	-134.802	136.12	55.05	-152.147	154.174	74.3287	-125.747	111.174	80.9407	-125.597	136.982	70.0279	-145.746	150.25	86.3049	-116.822	114.877	105.424	-116.61	134.9	88.9097	-134.691	149.914	94.1886	-140.55	91.5551	118.945	-152.563	78.3041	142.679	-169.82	80.8111	114.911	
27	0.225	-196.314	99.2463	118.047	-204.679	124.183	101.177	-199.106	140.865	80.0675	-194.293	158.102	68.1077	-161.833	112.841	65.5943	-161.888	140.998	51.9257	-165.208	163.513	64.3319	-139.509	111.395	65.6194	-134.406	138.838	57.2852	-158.532	153.746	77.4746	-125.543	111.522	84.6136	-126.867	138.646	72.2232	-143.432	151.304	86.1448	-117.283	114.611	106.232	-116.207	132.199	90.3024	-137.039	147.918	95.9992	-147.229	90.0312	118.803	-154.643	79.2554	142.099	-168.964	80.6739	113.438	
28	0.233333	-200.255	100.748	113.405	-202.104	124.771	103.307	-198.709	142.87	85.943	-193.044	159.703	75.007	-162.555	118.915	63.2523	-159.838	144.43	56.5811	-168.245	170.642	72.9866	-142.706	114.003	68.7999	-138.186	144.528	59.0053	-153.477	156.372	80.7632	-127.219	115.97	82.0431	-129.656	141.488	72.7115	-146.909	152.104	88.6404	-121.489	115.338	104.188	-118.066	138.677	93.2845	-139.819	150.799	100.436	-143.259	90.0446	115.983	-158.513	76.1206	139.165	-171.593	78.7392	112.818	
29	0.241667	-202.584	103.069	116.411	-201.246	130.872	105.517	-202.297	151.831	93.2854	-192.638	171.745	86.5593	-161.191	127.528	69.5445	-159.505	156.5	65.9087	-170.23	177.352	85.7668	-137.239	123.867	73.2252	-135.415	153.895	70.9639	-157.649	161.134	95.507	-128.284	121.444	86.927	-127.834	147.662	84.0377	-144.096	156.189	103.633	-123.311	117.625	106.974	-118.788	142.245	100.627	-141.214	150.749	110.053	-151.838	88.9266	115.783	-162.278	76.2143	132.684	-176.164	81.5866	108.716	
30	0.25	-200.023	109.445	118.016	-203.279	141.022	115.725	-195.012	159.23	115.055	-183.748	180.931	112.718	-160.196	145.492	79.483	-152.055	166.655	88.5218	-160.357	183.08	115.64	-137.165	132.259	87.2422	-129.856	162.46	94.3682	-149.368	164.269	118.275	-125.508	127.183	96.9206	-123.732	153.514	107.054	-146.673	154.362	122.097	-120.472	117.573	116.027	-115.948	139.802	118.425	-141.306	149.832	131.112	-149.128	88.3869	114.431	-166.378	72.0271	129.483	-177.757	87.0199	106.429	
31	0.258333	-204.716	113.918	124.194	-203.98	146.301	130.506	-193.072	163.195	131.818	-184.026	185.804	135	-155.588	151.819	95.3873	-150.576	173.356	106.993	-155.573	184.366	133.783	-135.312	141.307	96.8352	-129.151	164.683	112.794	-150.862	164.428	136.376	-125.886	126.65	110.703	-122.075	150.092	120.021	-144.09	151.129	139.642	-122.516	111.49	126.108	-115.056	136.409	134.173	-134.798	145.082	144.206	-155.852	88.9764	115.188	-175.685	72.9759	126.63	-185.396	96.4822	106.49	
32	0.266667	-205.568	117.787	129.05	-201.728	144.896	139.764	-191.801	165.894	144.745	-177.088	181.284	149.579	-158.886	150.981	102.984	-145.464	171.118	120.276	-146.957	178.687	146.788	-135.81	136.845	106.384	-123.841	159.793	122.94	-146.104	159.264	146.803	-128.258	125.221	114.626	-119.59	144.821	130.392	-140.616	145.515	149.541	-122.45	106.995	130.681	-117.151	130.3	138.686	-138.208	138.328	153.081	-158.742	88.4207	115.791	-181.339	73.038	125.486	-185.165	95.5965	112.041	
